<mxfile host="65bd71144e">
    <diagram id="U3jAMGxDenzaR5lh6SyV" name="Home/without login">
        <mxGraphModel dx="1670" dy="575" grid="1" gridSize="10" guides="1" tooltips="1" connect="1" arrows="1" fold="1" page="1" pageScale="1" pageWidth="850" pageHeight="1100" math="0" shadow="0">
            <root>
                <mxCell id="0"/>
                <mxCell id="1" parent="0"/>
                <mxCell id="eS0nZYZOlv7Iu7qD18Q4-13" value="" style="rounded=0;whiteSpace=wrap;html=1;fontSize=24;fillColor=#eeeeee;labelBackgroundColor=none;strokeColor=#36393d;" vertex="1" parent="1">
                    <mxGeometry x="-20" y="485" width="900" height="60" as="geometry"/>
                </mxCell>
                <mxCell id="3" value="Home" style="text;html=1;align=center;verticalAlign=middle;whiteSpace=wrap;rounded=0;fontSize=24;fontColor=#000000;" vertex="1" parent="1">
                    <mxGeometry x="180" y="505" width="50" height="20" as="geometry"/>
                </mxCell>
                <mxCell id="5" value="Log in" style="text;html=1;strokeColor=none;fillColor=none;align=center;verticalAlign=middle;whiteSpace=wrap;rounded=0;fontSize=24;fontColor=#000000;" vertex="1" parent="1">
                    <mxGeometry x="285" y="505" width="100" height="20" as="geometry"/>
                </mxCell>
                <mxCell id="8" value="Sign up" style="text;html=1;strokeColor=none;fillColor=none;align=center;verticalAlign=middle;whiteSpace=wrap;rounded=0;fontSize=24;fontColor=#000000;" vertex="1" parent="1">
                    <mxGeometry x="440" y="505" width="100" height="20" as="geometry"/>
                </mxCell>
                <mxCell id="11" value="Search" style="text;html=1;strokeColor=none;fillColor=none;align=center;verticalAlign=middle;whiteSpace=wrap;rounded=0;fontSize=24;fontColor=#000000;" vertex="1" parent="1">
                    <mxGeometry x="595" y="505" width="80" height="20" as="geometry"/>
                </mxCell>
                <mxCell id="12" value="Travel time" style="text;html=1;strokeColor=none;fillColor=none;align=center;verticalAlign=middle;whiteSpace=wrap;rounded=0;fontSize=24;fontColor=#FFFFFF;" vertex="1" parent="1">
                    <mxGeometry x="255" y="350" width="310" height="110" as="geometry"/>
                </mxCell>
                <mxCell id="13" value="Welcome to our website" style="text;html=1;strokeColor=none;fillColor=none;align=center;verticalAlign=middle;whiteSpace=wrap;rounded=0;fontSize=24;fontColor=#FFFFFF;" vertex="1" parent="1">
                    <mxGeometry x="260" y="580" width="305" height="210" as="geometry"/>
                </mxCell>
            </root>
        </mxGraphModel>
    </diagram>
    <diagram id="Fwz9sgZKwBbqkOjLNSjC" name="home/with login">
        <mxGraphModel dx="1670" dy="1675" grid="1" gridSize="10" guides="1" tooltips="1" connect="1" arrows="1" fold="1" page="1" pageScale="1" pageWidth="850" pageHeight="1100" math="0" shadow="0">
            <root>
                <mxCell id="NnxBhYxsnS59EUitgq1r-0"/>
                <mxCell id="NnxBhYxsnS59EUitgq1r-1" parent="NnxBhYxsnS59EUitgq1r-0"/>
                <mxCell id="L05Ng4sqhCK4ilnVcGBn-6" value="" style="rounded=0;whiteSpace=wrap;html=1;labelBackgroundColor=none;fontSize=24;fillColor=#eeeeee;strokeColor=#36393d;" vertex="1" parent="NnxBhYxsnS59EUitgq1r-1">
                    <mxGeometry x="-70" y="105" width="990" height="60" as="geometry"/>
                </mxCell>
                <mxCell id="L05Ng4sqhCK4ilnVcGBn-0" value="Home" style="text;html=1;align=center;verticalAlign=middle;whiteSpace=wrap;rounded=0;fontSize=24;fontColor=#000000;" vertex="1" parent="NnxBhYxsnS59EUitgq1r-1">
                    <mxGeometry x="178" y="125" width="50" height="20" as="geometry"/>
                </mxCell>
                <mxCell id="L05Ng4sqhCK4ilnVcGBn-1" value="Logout" style="text;html=1;strokeColor=none;fillColor=none;align=center;verticalAlign=middle;whiteSpace=wrap;rounded=0;fontSize=24;fontColor=#000000;" vertex="1" parent="NnxBhYxsnS59EUitgq1r-1">
                    <mxGeometry x="440" y="125" width="100" height="20" as="geometry"/>
                </mxCell>
                <mxCell id="L05Ng4sqhCK4ilnVcGBn-2" value="History" style="text;html=1;strokeColor=none;fillColor=none;align=center;verticalAlign=middle;whiteSpace=wrap;rounded=0;fontSize=24;fontColor=#000000;" vertex="1" parent="NnxBhYxsnS59EUitgq1r-1">
                    <mxGeometry x="285" y="125" width="113" height="20" as="geometry"/>
                </mxCell>
                <mxCell id="L05Ng4sqhCK4ilnVcGBn-3" value="Search" style="text;html=1;strokeColor=none;fillColor=none;align=center;verticalAlign=middle;whiteSpace=wrap;rounded=0;fontSize=24;fontColor=#000000;" vertex="1" parent="NnxBhYxsnS59EUitgq1r-1">
                    <mxGeometry x="593" y="125" width="80" height="20" as="geometry"/>
                </mxCell>
                <mxCell id="L05Ng4sqhCK4ilnVcGBn-4" value="Travel time" style="text;html=1;strokeColor=none;fillColor=none;align=center;verticalAlign=middle;whiteSpace=wrap;rounded=0;fontSize=24;fontColor=#FFFFFF;" vertex="1" parent="NnxBhYxsnS59EUitgq1r-1">
                    <mxGeometry x="253" y="-30" width="310" height="110" as="geometry"/>
                </mxCell>
                <mxCell id="L05Ng4sqhCK4ilnVcGBn-5" value="Hello (username)!" style="text;html=1;strokeColor=none;fillColor=none;align=center;verticalAlign=middle;whiteSpace=wrap;rounded=0;fontSize=24;fontColor=#FFFFFF;" vertex="1" parent="NnxBhYxsnS59EUitgq1r-1">
                    <mxGeometry x="258" y="200" width="292" height="150" as="geometry"/>
                </mxCell>
            </root>
        </mxGraphModel>
    </diagram>
    <diagram id="tA__xKAAORHExMZK3eFN" name="Search">
        <mxGraphModel dx="1670" dy="575" grid="1" gridSize="10" guides="1" tooltips="1" connect="1" arrows="1" fold="1" page="1" pageScale="1" pageWidth="850" pageHeight="1100" math="0" shadow="0">
            <root>
                <mxCell id="sXnz9F7dyz7muC-79P5k-0"/>
                <mxCell id="sXnz9F7dyz7muC-79P5k-1" parent="sXnz9F7dyz7muC-79P5k-0"/>
                <mxCell id="rw_bdYk3N61rUOg78QGn-10" value="" style="rounded=0;whiteSpace=wrap;html=1;labelBackgroundColor=none;fontSize=24;fillColor=#eeeeee;strokeColor=#36393d;" vertex="1" parent="sXnz9F7dyz7muC-79P5k-1">
                    <mxGeometry x="570" y="320" width="140" height="40" as="geometry"/>
                </mxCell>
                <mxCell id="WDQkbM1MGLFBFG5Yj3PB-7" value="" style="rounded=0;whiteSpace=wrap;html=1;labelBackgroundColor=none;fontSize=24;fillColor=#eeeeee;strokeColor=#36393d;" vertex="1" parent="sXnz9F7dyz7muC-79P5k-1">
                    <mxGeometry x="-50" y="155" width="980" height="60" as="geometry"/>
                </mxCell>
                <mxCell id="WDQkbM1MGLFBFG5Yj3PB-0" value="Home" style="text;html=1;align=center;verticalAlign=middle;whiteSpace=wrap;rounded=0;fontSize=24;fontColor=#000000;" vertex="1" parent="sXnz9F7dyz7muC-79P5k-1">
                    <mxGeometry x="245" y="175" width="50" height="20" as="geometry"/>
                </mxCell>
                <mxCell id="WDQkbM1MGLFBFG5Yj3PB-1" value="Logout" style="text;html=1;strokeColor=none;fillColor=none;align=center;verticalAlign=middle;whiteSpace=wrap;rounded=0;fontSize=24;fontColor=#000000;" vertex="1" parent="sXnz9F7dyz7muC-79P5k-1">
                    <mxGeometry x="435" y="175" width="100" height="20" as="geometry"/>
                </mxCell>
                <mxCell id="WDQkbM1MGLFBFG5Yj3PB-2" value="History" style="text;html=1;strokeColor=none;fillColor=none;align=center;verticalAlign=middle;whiteSpace=wrap;rounded=0;fontSize=24;fontColor=#000000;" vertex="1" parent="sXnz9F7dyz7muC-79P5k-1">
                    <mxGeometry x="325" y="175" width="100" height="20" as="geometry"/>
                </mxCell>
                <mxCell id="WDQkbM1MGLFBFG5Yj3PB-3" value="Search" style="text;html=1;strokeColor=none;fillColor=none;align=center;verticalAlign=middle;whiteSpace=wrap;rounded=0;fontSize=24;fontColor=#000000;" vertex="1" parent="sXnz9F7dyz7muC-79P5k-1">
                    <mxGeometry x="570" y="175" width="80" height="20" as="geometry"/>
                </mxCell>
                <mxCell id="WDQkbM1MGLFBFG5Yj3PB-4" value="Travel time" style="text;html=1;strokeColor=none;fillColor=none;align=center;verticalAlign=middle;whiteSpace=wrap;rounded=0;fontSize=24;fontColor=#FFFFFF;" vertex="1" parent="sXnz9F7dyz7muC-79P5k-1">
                    <mxGeometry x="291.25" y="30" width="310" height="110" as="geometry"/>
                </mxCell>
                <mxCell id="rw_bdYk3N61rUOg78QGn-1" value="" style="rounded=0;whiteSpace=wrap;html=1;labelBackgroundColor=none;fontSize=24;fillColor=#eeeeee;strokeColor=#36393d;" vertex="1" parent="sXnz9F7dyz7muC-79P5k-1">
                    <mxGeometry x="190" y="320" width="130" height="40" as="geometry"/>
                </mxCell>
                <mxCell id="rw_bdYk3N61rUOg78QGn-2" value="City" style="text;html=1;strokeColor=none;fillColor=none;align=center;verticalAlign=middle;whiteSpace=wrap;rounded=0;labelBackgroundColor=none;fontSize=24;fontColor=#000000;" vertex="1" parent="sXnz9F7dyz7muC-79P5k-1">
                    <mxGeometry x="175" y="330" width="145" height="20" as="geometry"/>
                </mxCell>
                <mxCell id="rw_bdYk3N61rUOg78QGn-3" value="" style="rounded=0;whiteSpace=wrap;html=1;labelBackgroundColor=none;fontSize=24;fillColor=#eeeeee;strokeColor=#36393d;" vertex="1" parent="sXnz9F7dyz7muC-79P5k-1">
                    <mxGeometry x="350" y="320" width="195" height="40" as="geometry"/>
                </mxCell>
                <mxCell id="rw_bdYk3N61rUOg78QGn-6" value="&lt;font style=&quot;font-size: 19px&quot;&gt;Country(Drop Down)&lt;/font&gt;" style="text;html=1;strokeColor=none;fillColor=none;align=center;verticalAlign=middle;whiteSpace=wrap;rounded=0;labelBackgroundColor=none;fontSize=24;fontColor=#000000;" vertex="1" parent="sXnz9F7dyz7muC-79P5k-1">
                    <mxGeometry x="350" y="325" width="192.5" height="30" as="geometry"/>
                </mxCell>
                <mxCell id="rw_bdYk3N61rUOg78QGn-7" value="" style="rounded=1;whiteSpace=wrap;html=1;labelBackgroundColor=none;fontSize=24;fillColor=#eeeeee;strokeColor=#36393d;" vertex="1" parent="sXnz9F7dyz7muC-79P5k-1">
                    <mxGeometry x="180" y="380" width="580" height="180" as="geometry"/>
                </mxCell>
                <mxCell id="rw_bdYk3N61rUOg78QGn-8" value="Temperature of the weather in the city. List of things needed to pack." style="text;html=1;strokeColor=none;fillColor=none;align=center;verticalAlign=middle;whiteSpace=wrap;rounded=0;labelBackgroundColor=none;fontSize=24;fontColor=#000000;" vertex="1" parent="sXnz9F7dyz7muC-79P5k-1">
                    <mxGeometry x="220" y="400" width="520" height="140" as="geometry"/>
                </mxCell>
                <mxCell id="4t-l8GjDUfvwfDKO_tOD-0" value="" style="edgeStyle=orthogonalEdgeStyle;rounded=0;orthogonalLoop=1;jettySize=auto;html=1;fontSize=24;fontColor=#000000;" edge="1" parent="sXnz9F7dyz7muC-79P5k-1" source="rw_bdYk3N61rUOg78QGn-9" target="rw_bdYk3N61rUOg78QGn-3">
                    <mxGeometry relative="1" as="geometry"/>
                </mxCell>
                <mxCell id="rw_bdYk3N61rUOg78QGn-9" value="Submit" style="text;html=1;strokeColor=none;fillColor=none;align=center;verticalAlign=middle;whiteSpace=wrap;rounded=0;labelBackgroundColor=none;fontSize=24;fontColor=#000000;" vertex="1" parent="sXnz9F7dyz7muC-79P5k-1">
                    <mxGeometry x="610" y="330" width="55" height="20" as="geometry"/>
                </mxCell>
            </root>
        </mxGraphModel>
    </diagram>
    <diagram id="bKW-IXyBhcY0Zu4AeuIb" name="Sign up">
        <mxGraphModel dx="1670" dy="575" grid="1" gridSize="10" guides="1" tooltips="1" connect="1" arrows="1" fold="1" page="1" pageScale="1" pageWidth="850" pageHeight="1100" math="0" shadow="0">
            <root>
                <mxCell id="5PK5d9iQUpo0ajtu69UT-0"/>
                <mxCell id="5PK5d9iQUpo0ajtu69UT-1" parent="5PK5d9iQUpo0ajtu69UT-0"/>
                <mxCell id="TdaH0XQSR0-UOAk4n2jl-6" value="" style="rounded=0;whiteSpace=wrap;html=1;labelBackgroundColor=none;fontSize=24;fillColor=#eeeeee;strokeColor=#36393d;" vertex="1" parent="5PK5d9iQUpo0ajtu69UT-1">
                    <mxGeometry x="-150" y="155" width="1130" height="60" as="geometry"/>
                </mxCell>
                <mxCell id="TdaH0XQSR0-UOAk4n2jl-0" value="Home" style="text;html=1;align=center;verticalAlign=middle;whiteSpace=wrap;rounded=0;fontSize=24;fontColor=#000000;" vertex="1" parent="5PK5d9iQUpo0ajtu69UT-1">
                    <mxGeometry x="178" y="175" width="50" height="20" as="geometry"/>
                </mxCell>
                <mxCell id="TdaH0XQSR0-UOAk4n2jl-1" value="Log in" style="text;html=1;strokeColor=none;fillColor=none;align=center;verticalAlign=middle;whiteSpace=wrap;rounded=0;fontSize=24;fontColor=#000000;" vertex="1" parent="5PK5d9iQUpo0ajtu69UT-1">
                    <mxGeometry x="283" y="175" width="100" height="20" as="geometry"/>
                </mxCell>
                <mxCell id="TdaH0XQSR0-UOAk4n2jl-2" value="Sign up" style="text;html=1;strokeColor=none;fillColor=none;align=center;verticalAlign=middle;whiteSpace=wrap;rounded=0;fontSize=24;fontColor=#000000;" vertex="1" parent="5PK5d9iQUpo0ajtu69UT-1">
                    <mxGeometry x="438" y="175" width="100" height="20" as="geometry"/>
                </mxCell>
                <mxCell id="TdaH0XQSR0-UOAk4n2jl-3" value="Search" style="text;html=1;strokeColor=none;fillColor=none;align=center;verticalAlign=middle;whiteSpace=wrap;rounded=0;fontSize=24;fontColor=#000000;" vertex="1" parent="5PK5d9iQUpo0ajtu69UT-1">
                    <mxGeometry x="593" y="175" width="80" height="20" as="geometry"/>
                </mxCell>
                <mxCell id="TdaH0XQSR0-UOAk4n2jl-4" value="Travel time" style="text;html=1;strokeColor=none;fillColor=none;align=center;verticalAlign=middle;whiteSpace=wrap;rounded=0;fontSize=24;fontColor=#FFFFFF;" vertex="1" parent="5PK5d9iQUpo0ajtu69UT-1">
                    <mxGeometry x="253" y="20" width="310" height="110" as="geometry"/>
                </mxCell>
                <mxCell id="On0tgasnMSHuT25NetBo-0" value="s" style="rounded=0;whiteSpace=wrap;html=1;labelBackgroundColor=none;fontSize=24;fillColor=#eeeeee;strokeColor=#36393d;" vertex="1" parent="5PK5d9iQUpo0ajtu69UT-1">
                    <mxGeometry x="533" y="280" width="177" height="40" as="geometry"/>
                </mxCell>
                <mxCell id="On0tgasnMSHuT25NetBo-1" value="" style="rounded=0;whiteSpace=wrap;html=1;labelBackgroundColor=none;fontSize=24;fillColor=#eeeeee;strokeColor=#36393d;" vertex="1" parent="5PK5d9iQUpo0ajtu69UT-1">
                    <mxGeometry x="100" y="280" width="210" height="40" as="geometry"/>
                </mxCell>
                <mxCell id="On0tgasnMSHuT25NetBo-2" value="username(textbox)" style="text;html=1;strokeColor=none;fillColor=none;align=center;verticalAlign=middle;whiteSpace=wrap;rounded=0;labelBackgroundColor=none;fontSize=24;fontColor=#000000;" vertex="1" parent="5PK5d9iQUpo0ajtu69UT-1">
                    <mxGeometry x="118" y="290" width="170" height="20" as="geometry"/>
                </mxCell>
                <mxCell id="On0tgasnMSHuT25NetBo-3" value="" style="rounded=0;whiteSpace=wrap;html=1;labelBackgroundColor=none;fontSize=24;fillColor=#eeeeee;strokeColor=#36393d;" vertex="1" parent="5PK5d9iQUpo0ajtu69UT-1">
                    <mxGeometry x="313" y="280" width="207" height="40" as="geometry"/>
                </mxCell>
                <mxCell id="On0tgasnMSHuT25NetBo-4" value="&lt;font style=&quot;font-size: 24px&quot;&gt;Password(textbox)&lt;/font&gt;" style="text;html=1;strokeColor=none;fillColor=none;align=center;verticalAlign=middle;whiteSpace=wrap;rounded=0;labelBackgroundColor=none;fontSize=24;fontColor=#000000;" vertex="1" parent="5PK5d9iQUpo0ajtu69UT-1">
                    <mxGeometry x="318" y="285" width="197" height="30" as="geometry"/>
                </mxCell>
                <mxCell id="On0tgasnMSHuT25NetBo-5" value="" style="edgeStyle=orthogonalEdgeStyle;rounded=0;orthogonalLoop=1;jettySize=auto;html=1;fontSize=24;fontColor=#000000;" edge="1" source="On0tgasnMSHuT25NetBo-6" target="On0tgasnMSHuT25NetBo-3" parent="5PK5d9iQUpo0ajtu69UT-1">
                    <mxGeometry relative="1" as="geometry"/>
                </mxCell>
                <mxCell id="On0tgasnMSHuT25NetBo-6" value="Sign up(button)" style="text;html=1;strokeColor=none;fillColor=none;align=center;verticalAlign=middle;whiteSpace=wrap;rounded=0;labelBackgroundColor=none;fontSize=24;fontColor=#000000;" vertex="1" parent="5PK5d9iQUpo0ajtu69UT-1">
                    <mxGeometry x="534" y="290" width="175" height="20" as="geometry"/>
                </mxCell>
            </root>
        </mxGraphModel>
    </diagram>
    <diagram id="36RdjJTELForQQlT2qVa" name="Log in">
        <mxGraphModel dx="1670" dy="575" grid="1" gridSize="10" guides="1" tooltips="1" connect="1" arrows="1" fold="1" page="1" pageScale="1" pageWidth="850" pageHeight="1100" math="0" shadow="0">
            <root>
                <mxCell id="nI_8uN_goIuQAEVUmw3d-0"/>
                <mxCell id="nI_8uN_goIuQAEVUmw3d-1" parent="nI_8uN_goIuQAEVUmw3d-0"/>
                <mxCell id="jgjzQZQNIH6MTKUXh3xM-0" value="" style="rounded=0;whiteSpace=wrap;html=1;labelBackgroundColor=none;fontSize=24;fillColor=#eeeeee;strokeColor=#36393d;" vertex="1" parent="nI_8uN_goIuQAEVUmw3d-1">
                    <mxGeometry x="-40" y="205" width="1130" height="60" as="geometry"/>
                </mxCell>
                <mxCell id="nI_8uN_goIuQAEVUmw3d-2" value="Home" style="text;html=1;align=center;verticalAlign=middle;whiteSpace=wrap;rounded=0;fontSize=24;fontColor=#000000;" vertex="1" parent="nI_8uN_goIuQAEVUmw3d-1">
                    <mxGeometry x="198" y="225" width="50" height="20" as="geometry"/>
                </mxCell>
                <mxCell id="nI_8uN_goIuQAEVUmw3d-3" value="Log in" style="text;html=1;strokeColor=none;fillColor=none;align=center;verticalAlign=middle;whiteSpace=wrap;rounded=0;fontSize=24;fontColor=#000000;" vertex="1" parent="nI_8uN_goIuQAEVUmw3d-1">
                    <mxGeometry x="303" y="225" width="100" height="20" as="geometry"/>
                </mxCell>
                <mxCell id="nI_8uN_goIuQAEVUmw3d-4" value="Sign up" style="text;html=1;strokeColor=none;fillColor=none;align=center;verticalAlign=middle;whiteSpace=wrap;rounded=0;fontSize=24;fontColor=#000000;" vertex="1" parent="nI_8uN_goIuQAEVUmw3d-1">
                    <mxGeometry x="458" y="225" width="100" height="20" as="geometry"/>
                </mxCell>
                <mxCell id="nI_8uN_goIuQAEVUmw3d-5" value="Search" style="text;html=1;strokeColor=none;fillColor=none;align=center;verticalAlign=middle;whiteSpace=wrap;rounded=0;fontSize=24;fontColor=#000000;" vertex="1" parent="nI_8uN_goIuQAEVUmw3d-1">
                    <mxGeometry x="613" y="225" width="80" height="20" as="geometry"/>
                </mxCell>
                <mxCell id="nI_8uN_goIuQAEVUmw3d-6" value="Travel time" style="text;html=1;strokeColor=none;fillColor=none;align=center;verticalAlign=middle;whiteSpace=wrap;rounded=0;fontSize=24;fontColor=#FFFFFF;" vertex="1" parent="nI_8uN_goIuQAEVUmw3d-1">
                    <mxGeometry x="273" y="70" width="310" height="110" as="geometry"/>
                </mxCell>
                <mxCell id="nI_8uN_goIuQAEVUmw3d-7" value="s" style="rounded=0;whiteSpace=wrap;html=1;labelBackgroundColor=none;fontSize=24;fillColor=#eeeeee;strokeColor=#36393d;" vertex="1" parent="nI_8uN_goIuQAEVUmw3d-1">
                    <mxGeometry x="553" y="330" width="177" height="40" as="geometry"/>
                </mxCell>
                <mxCell id="nI_8uN_goIuQAEVUmw3d-8" value="" style="rounded=0;whiteSpace=wrap;html=1;labelBackgroundColor=none;fontSize=24;fillColor=#eeeeee;strokeColor=#36393d;" vertex="1" parent="nI_8uN_goIuQAEVUmw3d-1">
                    <mxGeometry x="120" y="330" width="210" height="40" as="geometry"/>
                </mxCell>
                <mxCell id="nI_8uN_goIuQAEVUmw3d-9" value="username(textbox)" style="text;html=1;strokeColor=none;fillColor=none;align=center;verticalAlign=middle;whiteSpace=wrap;rounded=0;labelBackgroundColor=none;fontSize=24;fontColor=#000000;" vertex="1" parent="nI_8uN_goIuQAEVUmw3d-1">
                    <mxGeometry x="138" y="340" width="170" height="20" as="geometry"/>
                </mxCell>
                <mxCell id="nI_8uN_goIuQAEVUmw3d-10" value="" style="rounded=0;whiteSpace=wrap;html=1;labelBackgroundColor=none;fontSize=24;fillColor=#eeeeee;strokeColor=#36393d;" vertex="1" parent="nI_8uN_goIuQAEVUmw3d-1">
                    <mxGeometry x="333" y="330" width="207" height="40" as="geometry"/>
                </mxCell>
                <mxCell id="nI_8uN_goIuQAEVUmw3d-11" value="&lt;font style=&quot;font-size: 24px&quot;&gt;Password(textbox)&lt;/font&gt;" style="text;html=1;strokeColor=none;fillColor=none;align=center;verticalAlign=middle;whiteSpace=wrap;rounded=0;labelBackgroundColor=none;fontSize=24;fontColor=#000000;" vertex="1" parent="nI_8uN_goIuQAEVUmw3d-1">
                    <mxGeometry x="338" y="335" width="197" height="30" as="geometry"/>
                </mxCell>
                <mxCell id="nI_8uN_goIuQAEVUmw3d-12" value="" style="edgeStyle=orthogonalEdgeStyle;rounded=0;orthogonalLoop=1;jettySize=auto;html=1;fontSize=24;fontColor=#000000;" edge="1" source="nI_8uN_goIuQAEVUmw3d-13" target="nI_8uN_goIuQAEVUmw3d-10" parent="nI_8uN_goIuQAEVUmw3d-1">
                    <mxGeometry relative="1" as="geometry"/>
                </mxCell>
                <mxCell id="nI_8uN_goIuQAEVUmw3d-13" value="Log in button" style="text;html=1;strokeColor=none;fillColor=none;align=center;verticalAlign=middle;whiteSpace=wrap;rounded=0;labelBackgroundColor=none;fontSize=24;fontColor=#000000;" vertex="1" parent="nI_8uN_goIuQAEVUmw3d-1">
                    <mxGeometry x="554" y="340" width="175" height="20" as="geometry"/>
                </mxCell>
            </root>
        </mxGraphModel>
    </diagram>
</mxfile>